#!OML:ASF I:\Actors\actors\Patient Classification 2\Patient 1\Session 1\actor1.ASF
:FULLY-SPECIFIED
:DEGREES
117
root -0.734534 18.6419 6.84807 -2.62912 -2.40806 -6.21667
lowerback 3.76133 0.746624 3.95306
upperback -5.98056 1.36302 0.675745
thorax -8.33084 0.443038 -1.64929
lowerneck -17.8195 -3.27936 -2.0656
upperneck 29.3577 -5.77487 4.97613
head 13.0095 -2.11899 1.33214
rclavicle 1.15295e-014 -1.59028e-015
rhumerus -46.3967 7.49352 -97.1205
rradius 84.7236
rwrist 24.5296
rhand 4.05062 -38.488
rfingers 7.12502
rthumb 29.464 -66.171
lclavicle 1.15295e-014 -1.59028e-015
lhumerus -44.3087 -12.9964 99.0935
lradius 98.9373
lwrist -21.307
lhand 32.6892 -7.95057
lfingers 7.12502
lthumb 56.1071 9.35585
rfemur 14.8984 1.37378 19.6038
rtibia -1.27222e-014
rfoot -12.7147 -11.2319
rtoes -15.9716
lfemur -0.885815 1.12291 -6.29235
ltibia 29.1875
lfoot -18.2847 2.90771
ltoes -58.9654
118
root -0.751404 18.6273 6.88289 -3.00481 -2.31246 -6.15884
lowerback 3.64542 0.623678 3.76748
upperback -6.24797 1.17895 0.589774
thorax -8.56512 0.35362 -1.61625
lowerneck -17.3753 -3.23486 -2.02476
upperneck 29.6849 -5.78179 5.06451
head 13.054 -2.10948 1.3673
rclavicle -1.44119e-014 2.78299e-015
rhumerus -45.4275 7.56998 -97.2046
rradius 86.761
rwrist 23.7646
rhand 1.68523 -38.2812
rfingers 7.12502
rthumb 27.2035 -66.3399
lclavicle -1.44119e-014 2.78299e-015
lhumerus -43.4605 -12.9043 99.2411
lradius 100.988
lwrist -21.3546
lhand 31.6313 -8.31124
lfingers 7.12502
lthumb 55.1672 9.70577
rfemur 15.4478 1.27742 19.5948
rtibia 0
rfoot -12.8005 -11.1253
rtoes -16.2778
lfemur -0.534484 0.735214 -6.34816
ltibia 29.4235
lfoot -18.3919 3.00206
ltoes -59.1066
119
root -0.771829 18.61 6.89588 -3.164 -2.1563 -6.14523
lowerback 3.67355 0.471119 3.56053
upperback -6.65872 0.964795 0.522026
thorax -9.04475 0.246179 -1.55097
lowerneck -16.7182 -3.19662 -1.98522
upperneck 29.9526 -5.79736 5.16135
head 13.0291 -2.10848 1.40688
rclavicle 1.39149e-015 -7.55382e-015
rhumerus -44.4191 7.40738 -97.1357
rradius 88.9132
rwrist 23.4219
rhand -0.361138 -38.1237
rfingers 7.12502
rthumb 25.2444 -66.4737
lclavicle 1.39149e-015 -7.55382e-015
lhumerus -42.5358 -12.6573 99.3793
lradius 102.817
lwrist -21.3847
lhand 30.5529 -9.00365
lfingers 7.12502
lthumb 54.2034 9.69594
rfemur 15.6923 1.10617 19.6716
rtibia -3.18055e-014
rfoot -12.901 -11.0826
rtoes -17.0248
lfemur -0.533276 0.24763 -6.39064
ltibia 29.6507
lfoot -18.5129 3.30016
ltoes -59.1807
120
root -0.787944 18.5859 6.91659 -3.07171 -2.12254 -6.64077
lowerback 3.3123 0.372198 3.91155
upperback -7.10215 0.859148 0.573707
thorax -9.32484 0.161473 -1.67763
lowerneck -15.8882 -3.14774 -1.89868
upperneck 30.1707 -5.81318 5.27476
head 12.9457 -2.10457 1.44668
rclavicle -2.5842e-015 -1.27222e-014
rhumerus -43.4667 6.97752 -96.9607
rradius 91.2282
rwrist 23.5261
rhand -1.35993 -38.1865
rfingers 7.12502
rthumb 24.2872 -66.668
lclavicle -2.5842e-015 -1.27222e-014
lhumerus -41.5659 -12.2694 99.5829
lradius 104.48
lwrist -21.4279
lhand 29.5247 -9.70259
lfingers 7.12502
lthumb 53.2791 9.61142
rfemur 15.7052 1.0167 20.3143
rtibia 0
rfoot -13.182 -11.0322
rtoes -17.9086
lfemur -0.683226 -0.155297 -5.90492
ltibia 29.8812
lfoot -18.8675 3.79109
ltoes -59.2362
121
root -0.800407 18.5487 6.96234 -3.45072 -1.96457 -6.44109
lowerback 2.9874 0.298205 3.55354
upperback -7.33031 0.709762 0.422916
thorax -9.39116 0.10412 -1.61822
lowerneck -15.0202 -3.11993 -1.74478
upperneck 30.4489 -5.86128 5.32641
head 12.8759 -2.11498 1.44724
rclavicle 4.37326e-015 -1.11319e-014
rhumerus -42.5755 6.23497 -96.8299
rradius 93.5323
rwrist 23.8012
rhand -2.37485 -37.4374
rfingers 7.12502
rthumb 23.3138 -66.0458
lclavicle 4.37326e-015 -1.11319e-014
lhumerus -40.4858 -11.7507 99.9894
lradius 105.758
lwrist -21.5192
lhand 28.5886 -10.1951
lfingers 7.12502
lthumb 52.4337 9.64935
rfemur 16.3211 0.857272 20.176
rtibia 1.90833e-014
rfoot -13.7674 -10.8989
rtoes -18.4997
lfemur -0.270704 -0.668905 -6.2602
ltibia 30.1504
lfoot -19.5499 4.33775
ltoes -59.2826
122
root -0.802602 18.4981 7.02702 -3.9627 -2.23578 -6.2227
lowerback 2.45381 0.391804 3.33229
upperback -7.4298 0.786431 0.280572
thorax -9.17782 0.154183 -1.64837
lowerneck -14.2379 -3.11748 -1.60475
upperneck 30.8528 -5.91389 5.273
head 12.8729 -2.13851 1.40957
rclavicle 1.96797e-014 -4.77083e-015
rhumerus -41.6793 5.20043 -96.7274
rradius 95.6102
rwrist 24.6409
rhand -2.92503 -36.868
rfingers 7.12502
rthumb 22.7859 -65.5423
lclavicle 1.96797e-014 -4.77083e-015
lhumerus -39.4402 -10.9869 100.677
lradius 106.685
lwrist -21.72
lhand 27.7054 -10.4842
lfingers 7.12502
lthumb 51.6326 9.83718
rfemur 17.0852 1.13536 20.019
rtibia -3.81667e-014
rfoot -14.5321 -10.7626
rtoes -18.6208
lfemur 0.539078 -0.965791 -6.70677
ltibia 30.3747
lfoot -20.6445 4.89521
ltoes -59.2612
123
root -0.827299 18.4511 7.06336 -4.05199 -2.30281 -6.87105
lowerback 1.84222 0.371377 3.58723
upperback -7.66864 0.77087 0.48033
thorax -9.08142 0.135956 -1.5719
lowerneck -13.595 -3.0954 -1.51615
upperneck 31.3225 -5.9316 5.23706
head 12.9282 -2.14572 1.39214
rclavicle 1.66979e-014 -2.38542e-015
rhumerus -41.0127 4.04889 -96.8043
rradius 97.56
rwrist 25.9333
rhand -3.14208 -36.6675
rfingers 7.12502
rthumb 22.5776 -65.3672
lclavicle 1.66979e-014 -2.38542e-015
lhumerus -38.6633 -9.9575 101.585
lradius 107.496
lwrist -22.1387
lhand 27.2685 -10.371
lfingers 7.12502
lthumb 51.2353 10.1781
rfemur 17.3846 1.10415 20.9076
rtibia -6.52014e-014
rfoot -15.3597 -10.6104
rtoes -18.0799
lfemur 0.804097 -0.998126 -5.91629
ltibia 30.5009
lfoot -21.5411 4.86621
ltoes -59.3107
